# xmcd
#
# Track frame offsets: 
#        150
#        27210
#        52270
#        75117
#        91817
#        112715
#        126387
#        150015
#        177150
#        196352
#        217855
#        238037
#        257170
#        285747
#        304122
#        323017
#
# Disc length: 4534 seconds
#
# Revision: 3
# Processed by: cddbd v1.5.2PL0 Copyright (c) Steve Scherf et al.
# Submitted via: ExactAudioCopyFreeDBPlugin 1.0
#
DISCID=c511b410
DTITLE=Teddy Pendergrass - The Philly Years
DYEAR=1994
DGENRE=SMB
TTITLE0=Shout and Scream
TTITLE1=It's You I Love
TTITLE2=Can't We Try
TTITLE3=Love T.K.O.
TTITLE4=Is It Still Good to Ya?
TTITLE5=I Can't Live Without Your Love
TTITLE6=You're My Latest, My Greatest Inspiration
TTITLE7=It's Time for Love
TTITLE8=Nine Times Out of Ten
TTITLE9=I Can't Leave Your Love Alone
TTITLE10=This Gift of Life
TTITLE11=I Can't Win for Losing
TTITLE12=This One's for You
TTITLE13=I Want My Baby Back
TTITLE14=Heaven Only Knows
TTITLE15=Crazy About Your Love
EXTD=
EXTT0=
EXTT1=
EXTT2=
EXTT3=
EXTT4=
EXTT5=
EXTT6=
EXTT7=
EXTT8=
EXTT9=
EXTT10=
EXTT11=
EXTT12=
EXTT13=
EXTT14=
EXTT15=
PLAYORDER=
